<?xml version="1.0" encoding="UTF-8" standalone="no"?>
<!-- Created with Inkscape (http://www.inkscape.org/) -->

<svg
   width="50"
   height="100"
   viewBox="0 0 13.229166 26.458332"
   version="1.1"
   id="svg1"
   inkscape:version="1.3.2 (091e20e, 2023-11-25, custom)"
   sodipodi:docname="check_button_checked.svg"
   xmlns:inkscape="http://www.inkscape.org/namespaces/inkscape"
   xmlns:sodipodi="http://sodipodi.sourceforge.net/DTD/sodipodi-0.dtd"
   xmlns="http://www.w3.org/2000/svg"
   xmlns:svg="http://www.w3.org/2000/svg">
  <sodipodi:namedview
	 id="namedview1"
	 pagecolor="#ffffff"
	 bordercolor="#000000"
	 borderopacity="0.25"
	 inkscape:showpageshadow="2"
	 inkscape:pageopacity="0.0"
	 inkscape:pagecheckerboard="0"
	 inkscape:deskcolor="#d1d1d1"
	 inkscape:document-units="mm"
	 showguides="true"
	 inkscape:zoom="16.719529"
	 inkscape:cx="43.511991"
	 inkscape:cy="27.662262"
	 inkscape:window-width="3440"
	 inkscape:window-height="1369"
	 inkscape:window-x="-8"
	 inkscape:window-y="-8"
	 inkscape:window-maximized="1"
	 inkscape:current-layer="layer1" />
  <defs
	 id="defs1" />
  <g
	 inkscape:label="Layer 1"
	 inkscape:groupmode="layer"
	 id="layer1">
	<ellipse
	   style="fill:#00ff00;stroke-width:0.348013"
	   id="path1-7"
	   cx="-6.6146364"
	   cy="6.6145825"
	   rx="4.2333336"
	   ry="4.2333331"
	   transform="rotate(-90)" />
	<path
	   style="fill:none;fill-opacity:1;stroke:#000000;stroke-width:2.11701;stroke-dasharray:none;stroke-opacity:1"
	   id="path3"
	   sodipodi:type="arc"
	   sodipodi:cx="-19.838238"
	   sodipodi:cy="6.6145835"
	   sodipodi:rx="5.5623403"
	   sodipodi:ry="5.5560784"
	   sodipodi:start="1.5707963"
	   sodipodi:end="4.712389"
	   sodipodi:open="true"
	   sodipodi:arc-type="arc"
	   d="m -19.838238,12.170662 a 5.5623403,5.5560784 0 0 1 -4.817128,-2.7780392 5.5623403,5.5560784 0 0 1 0,-5.5560785 5.5623403,5.5560784 0 0 1 4.817128,-2.7780392"
	   transform="rotate(-90)" />
	<path
	   style="fill:none;fill-opacity:1;stroke:#000000;stroke-width:2.11701;stroke-dasharray:none;stroke-opacity:1"
	   id="path4"
	   sodipodi:type="arc"
	   sodipodi:cx="-19.843803"
	   sodipodi:cy="6.6145835"
	   sodipodi:rx="5.5567751"
	   sodipodi:ry="5.5560784"
	   sodipodi:start="1.5707963"
	   sodipodi:end="4.712389"
	   sodipodi:open="true"
	   sodipodi:arc-type="arc"
	   d="m -19.843803,12.170662 a 5.5567751,5.5560784 0 0 1 -4.812309,-2.7780392 5.5567751,5.5560784 0 0 1 0,-5.5560785 5.5567751,5.5560784 0 0 1 4.812309,-2.7780392"
	   transform="rotate(-90)" />
	<path
	   style="fill:none;fill-opacity:1;stroke:#000000;stroke-width:2.11701;stroke-dasharray:none;stroke-opacity:1"
	   id="path4-3"
	   sodipodi:type="arc"
	   sodipodi:cx="6.6146364"
	   sodipodi:cy="6.6145835"
	   sodipodi:rx="5.5567751"
	   sodipodi:ry="5.5560784"
	   sodipodi:start="1.5707963"
	   sodipodi:end="4.712389"
	   sodipodi:open="true"
	   sodipodi:arc-type="arc"
	   d="M 6.6146364,12.170662 A 5.5567751,5.5560784 0 0 1 1.8023281,9.3926228 5.5567751,5.5560784 0 0 1 1.802328,3.8365443 5.5567751,5.5560784 0 0 1 6.6146364,1.0585051"
	   transform="matrix(0,1,1,0,0,0)" />
	<rect
	   style="fill:#000000;fill-opacity:1;stroke:none;stroke-width:2.117;stroke-dasharray:none;stroke-opacity:1"
	   id="rect4"
	   width="13.229167"
	   height="2.1166668"
	   x="-19.843803"
	   y="0"
	   transform="rotate(-90)" />
	<rect
	   style="fill:#000000;fill-opacity:1;stroke:none;stroke-width:2.117;stroke-dasharray:none;stroke-opacity:1"
	   id="rect4-5"
	   width="13.229167"
	   height="2.1166668"
	   x="-19.843803"
	   y="11.112499"
	   transform="rotate(-90)" />
  </g>
</svg>
